<svg data-v-29081953="" xmlns="http://www.w3.org/2000/svg" viewBox="0 0 300 300"><!----><defs data-v-29081953=""><!----></defs><rect data-v-29081953="" fill="transparent" x="0" y="0" width="300px" height="300px" class="logo-background-square"></rect><!----><defs data-v-29081953=""><linearGradient data-v-29081953="" gradientTransform="rotate(25)" id="08012601-a0a2-4a52-862b-0b5bcc3d573c" x1="0%" y1="0%" x2="100%" y2="0%"><stop data-v-29081953="" offset="0%" stop-color="#0076DD" stop-opacity="1"></stop><stop data-v-29081953="" offset="100%" stop-color="#E600E9" stop-opacity="1"></stop></linearGradient></defs><g data-v-29081953="" id="429f6897-e520-454e-a833-e66800518fc1" fill="none" stroke="url(#08012601-a0a2-4a52-862b-0b5bcc3d573c)" transform="matrix(2.75,0,0,2.75,12.5,12.498625755310059)"><path stroke-linecap="round" stroke-linejoin="round" stroke-miterlimit="10" d="M76.972 30.135a2.792 2.792 0 0 1 2.792-2.789h.003c3.081 0 5.58 2.5 5.58 5.581v22.331a5.578 5.578 0 0 1-5.583 5.573 2.79 2.79 0 0 1-2.792-2.788V30.135z"></path><path stroke="#000" stroke-linecap="round" stroke-linejoin="round" stroke-miterlimit="10" d="M71.392 66.415c3.084 0 5.584-2.5 5.584-5.584V27.347c0-3.08-2.5-5.583-5.584-5.583a2.792 2.792 0 0 0-2.788 2.792v39.068a2.792 2.792 0 0 0 2.788 2.791zM23.028 58.046a2.79 2.79 0 0 1-2.792 2.785h-.006a5.578 5.578 0 0 1-5.577-5.577v-22.33c0-3.077 2.5-5.58 5.583-5.58a2.794 2.794 0 0 1 2.792 2.792v27.91z"></path><path stroke="#000" stroke-linecap="round" stroke-linejoin="round" stroke-miterlimit="10" d="M28.605 21.764a5.585 5.585 0 0 0-5.583 5.58v33.487c0 3.084 2.5 5.584 5.583 5.584a2.794 2.794 0 0 0 2.792-2.789V24.559a2.795 2.795 0 0 0-2.792-2.795zM10 40.369h4.653v7.444H10zM85.347 40.369H90v7.444h-4.653zM60.118 47.813l.259 1.647-.256-1.647zM60.118 47.813h8.486v-7.444h-9.637z"></path><path stroke="#000" stroke-linecap="round" stroke-linejoin="round" stroke-miterlimit="10" d="M65.293 47.813v2.51c0 .638-.123 1.249-.36 1.802a4.642 4.642 0 0 1-1.021 1.534v.013a4.748 4.748 0 0 1-1.533 1.019l-6.403 2.652c-.577.243-1.1.59-1.534 1.024v.01a4.732 4.732 0 0 0-1.38 3.34v16.52H36.617V57.07c-2.643-6.371-2.448-13.213 0-19.121a2.878 2.878 0 0 1 4.076 0v-1.618a4.324 4.324 0 0 1 6.118 0v-1.018a4.323 4.323 0 0 1 6.119 0v.859a3.782 3.782 0 0 1 5.354 0l.661 4.196 1.174 7.444h5.174z"></path><path stroke="#000" stroke-linecap="round" stroke-linejoin="round" stroke-miterlimit="10" d="M58.967 40.369l-.681-4.4c0-2.75 2.228-4.98 4.977-4.98v-.003c0 3.311.636 6.462 1.738 9.384h-6.034zM35.764 40.369h-4.368v7.444h3.33a24.996 24.996 0 0 1 1.038-7.444z"></path></g><!----></svg>